<svg fill="none" height="15" viewBox="0 0 14 15" width="14" xmlns="http://www.w3.org/2000/svg"><g stroke="#4147d5" stroke-linecap="round" stroke-linejoin="round" stroke-width="1.5"><path d="m3.15385 4.62795c1.23077 0 1.92308-.6923 1.92308-1.92307s-.69231-1.923081-1.92308-1.923081-1.92308.692311-1.92308 1.923081.69231 1.92307 1.92308 1.92307z" fill="#fff"/><path d="m10.8461 4.62795c1.2308 0 1.9231-.6923 1.9231-1.92307s-.6923-1.923081-1.9231-1.923081c-1.23073 0-1.92303.692311-1.92303 1.923081s.6923 1.92307 1.92303 1.92307z" fill="#fff"/><g fill="#d7e0ff"><path d="m3.15385 13.2819c-2.40385 0-2.40385-3.75004-2.40385-6.73081 1.92006-.57854 2.97098-.55493 4.80769 0 0 2.98077 0 6.73081-2.40384 6.73081z"/><path d="m10.8461 6.551c-2.40381 0-2.40381 3.37522-2.40381 6.356 1.87771.4705 2.93021.4807 4.80771 0 0-2.98078 0-6.356-2.4039-6.356z"/></g></g></svg>